PathFileType	4	(X/Y/Z)	HSS_squat3.trc
DataRate	CameraRate	NumFrames	NumMarkers	Units	OrigDataRate	OrigDataStartFrame	OrigNumFrames
120.0	120.0	7	44	mm	120.0	1	972
Frame#	Time		R.Shoulder		Offset		L.Shoulder		R.Elbow		R.Wrist.Radial		R.Wrist		R.Hand		L.Elbow		L.Wrist.Radial		L.Wrist		L.Hand		R.Hip		V.Sacral		L.PSIS		L.Hip		R.Thigh.Upper		R.Thigh.Front		R.Thigh.Rear		X.Shell.Lower.Thigh.Right		R.Knee.Lateral		R.Shank.Upper		R.Shank.Front		R.Shank.Rear		X.Shell.Lower.Shank.Right		R.Ankle.Lateral		R.Heel		R.Toe		L.Thigh.Upper		L.Thigh.Front		L.Thigh.Rear		X.Shell.Lower.Thigh.Left		L.Knee.Lateral		L.Shank.Upper		L.Shank.Front		L.Shank.Rear		X.Shell.Lower.Shank.Left		L.Ankle.Lateral		L.Heel		L.Toe		R.Troc		L.Troc		R.PSIS		L.ASIS		R.ASIS
			X1	Y1	Z1	X2	Y2	Z2	X3	Y3	Z3	X4	Y4	Z4	X5	Y5	Z5	X6	Y6	Z6	X7	Y7	Z7	X8	Y8	Z8	X9	Y9	Z9	X10	Y10	Z10	X11	Y11	Z11	X12	Y12	Z12	X13	Y13	Z13	X14	Y14	Z14	X15	Y15	Z15	X16	Y16	Z16	X17	Y17	Z17	X18	Y18	Z18	X19	Y19	Z19	X20	Y20	Z20	X21	Y21	Z21	X22	Y22	Z22	X23	Y23	Z23	X24	Y24	Z24	X25	Y25	Z25	X26	Y26	Z26	X27	Y27	Z27	X28	Y28	Z28	X29	Y29	Z29	X30	Y30	Z30	X31	Y31	Z31	X32	Y32	Z32	X33	Y33	Z33	X34	Y34	Z34	X35	Y35	Z35	X36	Y36	Z36	X37	Y37	Z37	X38	Y38	Z38	X39	Y39	Z39	X40	Y40	Z40	X41	Y41	Z41	X42	Y42	Z42	X43	Y43	Z43	X44	Y44	Z44

1	0.00000	160.60133	1470.58130	-111.76823	-137.07545	1380.90686	1.75275	-215.42969	1483.36804	-126.14079	210.33957	1098.81262	-107.76384	141.34218	919.55048	-281.24991	209.99440	898.24341	-265.79498	179.95689	839.87427	-323.81082	-272.73120	1114.37598	-132.21449	-172.45015	933.04114	-286.12473	-244.07677	925.05402	-286.89474	-201.49812	863.84863	-333.96008	124.28926	1032.15393	-156.29756	-27.33757	1018.18890	-39.69604	-67.74342	1023.81915	-42.90696	-172.65504	1031.66089	-164.80167	179.37053	694.90387	-184.46567	167.38939	655.06085	-216.57263	190.57184	658.18176	-159.38466	176.32825	623.19586	-186.05069	170.69460	518.02869	-119.46636	232.03932	378.75760	-97.37259	214.21068	333.01810	-125.73035	222.00125	341.37363	-65.60149	218.75980	300.42410	-88.94781	190.12654	72.03138	-81.85583	142.65240	33.22512	-41.33764	201.25122	31.36658	-237.65796	-220.08153	694.43280	-200.23613	-202.53487	642.69922	-218.18069	-237.24585	660.71869	-168.95323	-228.28291	624.36267	-193.92313	-215.95685	509.73819	-122.59449	-274.68362	316.31573	-84.43107	-261.48242	290.80243	-112.61356	-264.00931	276.37820	-54.25787	-270.01031	246.02138	-76.94186	-240.89462	75.68729	-95.14786	-196.98109	34.74274	-41.70409	-241.24377	32.39885	-241.02933	162.12210	890.59937	-165.27383	-212.33409	900.29059	-164.22337	16.31989	1022.09607	-39.90826	-130.20695	996.47784	-229.58386	92.95002	994.69360	-217.24637
2	0.00833	160.54323	1470.59521	-111.74834	-137.12445	1380.88550	1.83413	-215.46388	1483.35535	-126.06242	210.41965	1098.76196	-107.88579	140.80746	919.94391	-281.60474	209.34480	898.54761	-266.43994	179.10233	840.29138	-324.48041	-272.70505	1114.30774	-132.25896	-171.66406	933.36926	-286.48889	-243.32971	925.36731	-287.40009	-200.64203	864.31702	-334.45422	124.26817	1032.15601	-156.30859	-27.34114	1018.17114	-39.66656	-67.76190	1023.79932	-42.91897	-172.66476	1031.64880	-164.80536	179.35725	694.90295	-184.47137	167.34877	655.07990	-216.60095	190.55382	658.17969	-159.42603	176.31833	623.21820	-186.06699	170.69957	518.03119	-119.43768	232.02658	378.76517	-97.38240	214.20288	333.01254	-125.72221	221.98506	341.36441	-65.58979	218.75620	300.42218	-88.94589	190.10867	72.03654	-81.87458	142.66089	33.23176	-41.34145	201.24631	31.37219	-237.65276	-220.08806	694.45557	-200.25790	-202.55435	642.69336	-218.18692	-237.25876	660.70636	-168.95586	-228.30716	624.36047	-193.91747	-215.97552	509.74094	-122.60010	-274.71219	316.30988	-84.46579	-261.49655	290.79083	-112.62548	-264.02225	276.37979	-54.25645	-270.02460	246.01924	-76.93194	-240.89740	75.67514	-95.15074	-196.96254	34.75867	-41.67099	-241.25203	32.36799	-241.00307	162.09387	890.59320	-165.28754	-212.35616	900.29614	-164.22963	16.31160	1022.08887	-39.90650	-130.40866	996.43860	-228.85555	92.93475	994.70203	-217.24985
3	0.01667	160.52048	1470.59009	-111.71360	-137.17050	1380.87134	1.89263	-215.50763	1483.34607	-125.99640	210.53815	1098.72302	-108.03025	140.06500	920.34576	-282.10632	208.83694	898.87115	-266.94492	178.29527	840.81750	-325.17175	-272.66418	1114.24976	-132.33302	-170.78633	933.65747	-286.15417	-242.82092	925.63080	-287.76514	-199.84363	864.74866	-335.00882	124.25632	1032.15247	-156.32440	-27.34288	1018.15259	-39.68093	-67.77063	1023.78979	-42.92528	-172.69658	1031.65234	-164.76920	179.32460	694.90851	-184.52791	167.36279	655.08545	-216.65048	190.53055	658.19403	-159.45615	176.27716	623.21454	-186.08069	170.69112	518.04419	-119.46157	232.01660	378.76111	-97.37869	214.20531	333.01706	-125.70372	221.98219	341.36899	-65.58894	218.75070	300.44476	-88.93339	190.11017	72.03764	-81.86987	142.64558	33.23475	-41.33743	201.23427	31.36654	-237.66374	-220.09799	694.44513	-200.29086	-202.58359	642.71381	-218.27147	-237.26039	660.72772	-168.98497	-228.30305	624.35516	-193.94962	-215.97174	509.73337	-122.62215	-274.69611	316.30386	-84.46456	-261.48618	290.80545	-112.63399	-264.00418	276.36920	-54.26513	-270.02823	246.01332	-76.94559	-240.90800	75.68092	-95.14832	-196.96078	34.75967	-41.71417	-241.23305	32.40989	-241.03474	162.08394	890.61707	-165.30721	-212.38094	900.28961	-164.23506	16.30549	1022.07794	-39.90166	-130.42302	996.45734	-228.86134	92.91291	994.71533	-217.29297
4	0.02500	160.48419	1470.59436	-111.67371	-137.24582	1380.83899	1.95745	-215.55389	1483.33960	-125.93707	210.62064	1098.66748	-108.09763	139.56856	920.78949	-282.20978	208.11404	899.14038	-267.47766	177.50955	841.31622	-325.81638	-272.63174	1114.18127	-132.40099	-169.97157	934.15247	-286.50662	-242.08308	925.88812	-288.27969	-198.93494	865.18182	-335.39117	124.23795	1032.16223	-156.33801	-27.39190	1018.13934	-39.64997	-67.76655	1023.79266	-42.89752	-172.68707	1031.65381	-164.78496	179.30640	694.90387	-184.54619	167.33382	655.09998	-216.65154	190.50642	658.19324	-159.45924	176.27005	623.21252	-186.11435	170.68010	518.03082	-119.46373	232.00963	378.77490	-97.39336	214.19850	333.03021	-125.72768	221.97476	341.37973	-65.61055	218.73685	300.43918	-88.94909	190.10847	72.03423	-81.90622	142.64261	33.22492	-41.34513	201.23700	31.37026	-237.66415	-220.08476	694.45160	-200.33751	-202.58076	642.72888	-218.28452	-237.26268	660.72522	-169.02220	-228.30585	624.37860	-193.96603	-215.98288	509.73517	-122.63135	-274.69943	316.31088	-84.47668	-261.49365	290.79492	-112.66355	-263.99905	276.37109	-54.29707	-270.02240	246.01624	-76.94218	-240.89502	75.69418	-95.15633	-196.96466	34.74216	-41.71188	-241.23296	32.35944	-240.99068	162.06241	890.60126	-165.32866	-212.38539	900.29535	-164.24667	16.31794	1022.08356	-39.93098	-130.43678	996.47992	-228.86391	92.89240	994.75287	-217.26140
5	0.03333	160.45219	1470.59741	-111.64301	-137.33780	1380.79932	2.03678	-215.60789	1483.33313	-125.87226	210.71693	1098.61890	-108.21468	138.97408	921.26453	-282.67670	207.62425	899.33295	-268.03973	176.68401	841.73145	-326.28366	-272.61325	1114.08777	-132.44681	-169.32516	934.57050	-286.68335	-241.51700	926.12885	-288.62784	-198.22073	865.60791	-335.86813	124.23804	1032.16260	-156.32536	-27.37815	1018.13953	-39.69410	-67.76341	1023.78986	-42.91615	-172.70819	1031.65564	-164.79510	179.27567	694.92114	-184.57004	167.30931	655.09521	-216.67644	190.50479	658.18951	-159.47818	176.25847	623.21344	-186.12411	170.67078	518.03381	-119.44545	232.00685	378.76752	-97.40242	214.19630	333.01770	-125.72727	221.96692	341.37704	-65.59827	218.73701	300.44626	-88.96449	190.10582	72.04360	-81.88335	142.65445	33.24740	-41.35121	201.23787	31.36836	-237.68559	-220.10753	694.46741	-200.34706	-202.56027	642.74506	-218.29333	-237.28995	660.73029	-169.03326	-228.30428	624.38171	-193.99527	-215.98466	509.73871	-122.63425	-274.70279	316.30942	-84.45672	-261.51111	290.79648	-112.63495	-264.00555	276.38437	-54.31544	-270.02487	246.01318	-76.95599	-240.90421	75.68342	-95.14835	-196.98192	34.76040	-41.71328	-241.24846	32.37041	-241.02148	162.03572	890.60822	-165.31329	-212.39598	900.30371	-164.24260	16.30978	1022.06805	-39.91850	-130.43571	996.46899	-228.87534	92.87064	994.75134	-217.28746
6	0.04167	160.40562	1470.58557	-111.60110	-137.39476	1380.77075	2.07264	-215.67303	1483.32239	-125.78992	210.81627	1098.56140	-108.31089	138.35194	921.66125	-283.00873	207.08664	899.65137	-268.63943	175.93173	842.16772	-326.83560	-272.59970	1113.99255	-132.49382	-168.85423	934.85156	-287.00427	-240.88576	926.33667	-289.06787	-197.43553	866.08575	-336.37479	124.21400	1032.16479	-156.33572	-27.38541	1018.12830	-39.70890	-67.79404	1023.77112	-42.90235	-172.73686	1031.65039	-164.77267	179.27806	694.91418	-184.56453	167.28546	655.07501	-216.67874	190.49153	658.17865	-159.48885	176.24808	623.21808	-186.13910	170.64832	518.02960	-119.45801	232.00023	378.75906	-97.38058	214.17677	333.01971	-125.72572	221.96161	341.38788	-65.60352	218.73909	300.43445	-88.92574	190.10950	72.03012	-81.90361	142.64441	33.22398	-41.36103	201.23969	31.35489	-237.68974	-220.10077	694.46826	-200.36797	-202.54378	642.74261	-218.32179	-237.27899	660.72791	-169.06581	-228.30479	624.37274	-194.03476	-215.99812	509.72986	-122.64160	-274.70233	316.31195	-84.47914	-261.50369	290.79102	-112.65026	-264.00906	276.37378	-54.31778	-270.02600	246.01398	-76.96670	-240.88870	75.67728	-95.18480	-196.95770	34.77290	-41.71646	-241.23468	32.38572	-241.04405	162.03062	890.60559	-165.32442	-212.38579	900.30377	-164.25090	16.29567	1022.06342	-39.89934	-130.45425	996.45850	-228.87718	92.86189	994.74017	-217.28841
7	0.05000	160.39171	1470.57581	-111.54774	-137.45358	1380.70386	2.13980	-215.70755	1483.29443	-125.72886	210.89685	1098.52600	-108.44203	137.79039	922.01160	-283.31104	206.47160	900.01135	-269.16489	175.12587	842.68860	-327.47403	-272.58463	1113.88623	-132.53227	-168.26292	935.19556	-287.34924	-240.33675	926.60822	-289.44012	-196.61966	866.53668	-336.90540	124.20515	1032.16138	-156.28911	-27.39967	1018.12946	-39.67587	-67.79620	1023.76562	-42.94226	-172.73279	1031.64160	-164.76601	179.29269	694.88995	-184.51913	167.28877	655.08539	-216.66978	190.50340	658.16486	-159.49051	176.24481	623.19934	-186.11964	170.65942	518.03162	-119.46387	231.99419	378.75348	-97.36051	214.19304	333.00861	-125.72819	221.94980	341.35992	-65.58804	218.73276	300.42502	-88.93684	190.12059	72.02412	-81.91328	142.66861	33.23091	-41.37551	201.25238	31.35783	-237.68170	-220.10703	694.45941	-200.37865	-202.54567	642.72992	-218.39574	-237.27370	660.72375	-169.06725	-228.30234	624.37665	-194.03391	-215.99248	509.71994	-122.69267	-274.70697	316.29688	-84.52076	-261.49594	290.78214	-112.69464	-264.00531	276.35513	-54.34706	-270.01611	246.00586	-76.98953	-240.90131	75.67292	-95.17790	-196.95215	34.75401	-41.69713	-241.22618	32.38127	-241.04651	162.03635	890.59064	-165.35286	-212.40497	900.29688	-164.23625	16.30652	1022.05963	-39.91491	-130.45605	996.48163	-228.88158	92.85934	994.72217	-217.29117
